<svg xmlns="http://www.w3.org/2000/svg" version="1.1" xmlns:xlink="http://www.w3.org/1999/xlink" xmlns:svgjs="http://svgjs.dev/svgjs" viewBox="0 0 800 800"><circle r="10.5" cx="774" cy="612" fill="hsl(185, 75%, 70%)" opacity="0.86"></circle><circle r="11" cx="24" cy="765" fill="hsl(115, 75%, 70%)" opacity="0.63"></circle><circle r="11" cx="168" cy="542" fill="hsl(288, 75%, 70%)" opacity="0.29"></circle><circle r="11" cx="420" cy="110" fill="hsl(286, 75%, 70%)" opacity="0.96"></circle><circle r="9" cx="783" cy="213" fill="hsl(203, 75%, 70%)" opacity="0.80"></circle><circle r="18" cx="208" cy="618" fill="hsl(322, 75%, 70%)" opacity="0.40"></circle><circle r="7" cx="741" cy="482" fill="hsl(150, 75%, 70%)" opacity="0.74"></circle><circle r="6.5" cx="695" cy="186" fill="hsl(93, 75%, 70%)" opacity="0.19"></circle><circle r="8.5" cx="693" cy="424" fill="hsl(92, 75%, 70%)" opacity="0.63"></circle><circle r="7" cx="707" cy="499" fill="hsl(104, 75%, 70%)" opacity="0.62"></circle><circle r="11.5" cx="403" cy="608" fill="hsl(230, 75%, 70%)" opacity="0.14"></circle><circle r="14" cx="252" cy="707" fill="hsl(335, 75%, 70%)" opacity="0.59"></circle><circle r="6.5" cx="610" cy="665" fill="hsl(67, 75%, 70%)" opacity="0.78"></circle><circle r="6.5" cx="712" cy="665" fill="hsl(104, 75%, 70%)" opacity="0.51"></circle><circle r="7" cx="483" cy="130" fill="hsl(213, 75%, 70%)" opacity="0.33"></circle><circle r="8.5" cx="357" cy="707" fill="hsl(276, 75%, 70%)" opacity="0.28"></circle><circle r="14" cx="29" cy="517" fill="hsl(122, 75%, 70%)" opacity="0.45"></circle><circle r="10" cx="216" cy="369" fill="hsl(329, 75%, 70%)" opacity="0.44"></circle><circle r="7.5" cx="737" cy="782" fill="hsl(134, 75%, 70%)" opacity="0.54"></circle><circle r="11" cx="226" cy="108" fill="hsl(288, 75%, 70%)" opacity="0.83"></circle><circle r="10.5" cx="28" cy="583" fill="hsl(122, 75%, 70%)" opacity="0.36"></circle><circle r="11" cx="319" cy="54" fill="hsl(325, 75%, 70%)" opacity="0.54"></circle><circle r="8" cx="547" cy="469" fill="hsl(103, 75%, 70%)" opacity="0.21"></circle><circle r="12.5" cx="303" cy="17" fill="hsl(334, 75%, 70%)" opacity="0.83"></circle><circle r="9" cx="141" cy="555" fill="hsl(257, 75%, 70%)" opacity="0.11"></circle><circle r="11.5" cx="467" cy="273" fill="hsl(171, 75%, 70%)" opacity="0.64"></circle><circle r="10.5" cx="123" cy="300" fill="hsl(222, 75%, 70%)" opacity="0.83"></circle><circle r="11.5" cx="354" cy="106" fill="hsl(312, 75%, 70%)" opacity="0.63"></circle><circle r="5" cx="78" cy="711" fill="hsl(171, 75%, 70%)" opacity="0.20"></circle><circle r="15" cx="211" cy="468" fill="hsl(322, 75%, 70%)" opacity="0.40"></circle><circle r="12.5" cx="393" cy="491" fill="hsl(241, 75%, 70%)" opacity="0.25"></circle><circle r="10" cx="147" cy="190" fill="hsl(257, 75%, 70%)" opacity="0.92"></circle><circle r="5" cx="645" cy="725" fill="hsl(65, 75%, 70%)" opacity="0.66"></circle><circle r="7.5" cx="739" cy="17" fill="hsl(139, 75%, 70%)" opacity="0.25"></circle><circle r="14.5" cx="164" cy="648" fill="hsl(288, 75%, 70%)" opacity="0.42"></circle><circle r="10" cx="304" cy="676" fill="hsl(316, 75%, 70%)" opacity="0.85"></circle><circle r="10" cx="128" cy="673" fill="hsl(239, 75%, 70%)" opacity="1.00"></circle><circle r="12" cx="467" cy="370" fill="hsl(171, 75%, 70%)" opacity="0.61"></circle><circle r="6" cx="530" cy="236" fill="hsl(113, 75%, 70%)" opacity="0.95"></circle><circle r="10.5" cx="756" cy="522" fill="hsl(167, 75%, 70%)" opacity="0.77"></circle><circle r="4.5" cx="10" cy="36" fill="hsl(145, 75%, 70%)" opacity="0.60"></circle><circle r="10" cx="336" cy="81" fill="hsl(320, 75%, 70%)" opacity="0.34"></circle><circle r="14" cx="326" cy="292" fill="hsl(298, 75%, 70%)" opacity="0.12"></circle><circle r="9.5" cx="569" cy="570" fill="hsl(85, 75%, 70%)" opacity="0.82"></circle><circle r="11" cx="371" cy="15" fill="hsl(342, 75%, 70%)" opacity="0.55"></circle><circle r="10.5" cx="348" cy="35" fill="hsl(339, 75%, 70%)" opacity="0.45"></circle><circle r="9" cx="477" cy="15" fill="hsl(259, 75%, 70%)" opacity="0.62"></circle><circle r="14.5" cx="241" cy="527" fill="hsl(335, 75%, 70%)" opacity="0.67"></circle><circle r="4.5" cx="720" cy="747" fill="hsl(118, 75%, 70%)" opacity="0.82"></circle><circle r="8.5" cx="431" cy="720" fill="hsl(206, 75%, 70%)" opacity="0.15"></circle><circle r="11.5" cx="439" cy="50" fill="hsl(297, 75%, 70%)" opacity="0.65"></circle><circle r="11.5" cx="20" cy="406" fill="hsl(115, 75%, 70%)" opacity="0.11"></circle><circle r="9.5" cx="780" cy="31" fill="hsl(158, 75%, 70%)" opacity="0.79"></circle><circle r="9.5" cx="715" cy="595" fill="hsl(118, 75%, 70%)" opacity="0.10"></circle><circle r="6" cx="95" cy="768" fill="hsl(187, 75%, 70%)" opacity="0.61"></circle><circle r="5.5" cx="692" cy="154" fill="hsl(98, 75%, 70%)" opacity="0.66"></circle><circle r="11" cx="506" cy="571" fill="hsl(136, 75%, 70%)" opacity="0.36"></circle><circle r="15.5" cx="228" cy="232" fill="hsl(333, 75%, 70%)" opacity="0.15"></circle><circle r="6" cx="474" cy="759" fill="hsl(171, 75%, 70%)" opacity="0.63"></circle><circle r="8" cx="23" cy="251" fill="hsl(115, 75%, 70%)" opacity="0.56"></circle><circle r="8" cx="601" cy="179" fill="hsl(71, 75%, 70%)" opacity="0.60"></circle><circle r="12.5" cx="304" cy="376" fill="hsl(316, 75%, 70%)" opacity="0.70"></circle><circle r="5.5" cx="531" cy="690" fill="hsl(113, 75%, 70%)" opacity="0.10"></circle><circle r="12" cx="147" cy="372" fill="hsl(257, 75%, 70%)" opacity="0.63"></circle><circle r="14" cx="260" cy="367" fill="hsl(335, 75%, 70%)" opacity="0.32"></circle><circle r="15" cx="351" cy="250" fill="hsl(276, 75%, 70%)" opacity="0.64"></circle><circle r="10.5" cx="373" cy="527" fill="hsl(265, 75%, 70%)" opacity="0.14"></circle><circle r="10.5" cx="154" cy="753" fill="hsl(273, 75%, 70%)" opacity="0.43"></circle><circle r="5.5" cx="13" cy="98" fill="hsl(94, 75%, 70%)" opacity="0.95"></circle><circle r="9.5" cx="549" cy="422" fill="hsl(103, 75%, 70%)" opacity="0.31"></circle><circle r="9.5" cx="710" cy="43" fill="hsl(136, 75%, 70%)" opacity="0.89"></circle><circle r="9" cx="353" cy="780" fill="hsl(276, 75%, 70%)" opacity="0.79"></circle><circle r="7" cx="92" cy="727" fill="hsl(187, 75%, 70%)" opacity="0.96"></circle><circle r="7" cx="584" cy="129" fill="hsl(110, 75%, 70%)" opacity="0.93"></circle><circle r="5" cx="643" cy="172" fill="hsl(70, 75%, 70%)" opacity="0.71"></circle><circle r="12" cx="187" cy="60" fill="hsl(272, 75%, 70%)" opacity="0.89"></circle><circle r="11" cx="772" cy="272" fill="hsl(185, 75%, 70%)" opacity="0.64"></circle><circle r="10" cx="170" cy="118" fill="hsl(252, 75%, 70%)" opacity="0.97"></circle><circle r="7" cx="710" cy="219" fill="hsl(104, 75%, 70%)" opacity="0.35"></circle><circle r="7" cx="57" cy="691" fill="hsl(143, 75%, 70%)" opacity="0.50"></circle><circle r="12.5" cx="127" cy="79" fill="hsl(230, 75%, 70%)" opacity="0.68"></circle><circle r="7" cx="19" cy="145" fill="hsl(80, 75%, 70%)" opacity="0.23"></circle><circle r="12" cx="54" cy="22" fill="hsl(230, 75%, 70%)" opacity="0.68"></circle><circle r="12" cx="170" cy="592" fill="hsl(288, 75%, 70%)" opacity="0.79"></circle><circle r="9.5" cx="453" cy="613" fill="hsl(183, 75%, 70%)" opacity="0.58"></circle><circle r="7.5" cx="184" cy="92" fill="hsl(260, 75%, 70%)" opacity="0.46"></circle><circle r="8" cx="748" cy="204" fill="hsl(150, 75%, 70%)" opacity="0.23"></circle><circle r="10.5" cx="493" cy="522" fill="hsl(148, 75%, 70%)" opacity="0.16"></circle><circle r="9.5" cx="782" cy="558" fill="hsl(203, 75%, 70%)" opacity="0.70"></circle><circle r="8.5" cx="708" cy="384" fill="hsl(104, 75%, 70%)" opacity="0.18"></circle><circle r="5.5" cx="680" cy="224" fill="hsl(82, 75%, 70%)" opacity="0.75"></circle><circle r="7.5" cx="67" cy="770" fill="hsl(156, 75%, 70%)" opacity="0.50"></circle><circle r="8.5" cx="463" cy="577" fill="hsl(171, 75%, 70%)" opacity="0.12"></circle><circle r="6.5" cx="479" cy="733" fill="hsl(160, 75%, 70%)" opacity="0.34"></circle><circle r="10.5" cx="322" cy="189" fill="hsl(307, 75%, 70%)" opacity="0.76"></circle><circle r="5" cx="548" cy="787" fill="hsl(103, 75%, 70%)" opacity="0.78"></circle><circle r="5" cx="662" cy="152" fill="hsl(77, 75%, 70%)" opacity="0.81"></circle><circle r="5" cx="698" cy="694" fill="hsl(92, 75%, 70%)" opacity="0.83"></circle><circle r="6" cx="557" cy="756" fill="hsl(93, 75%, 70%)" opacity="0.33"></circle><circle r="7" cx="156" cy="219" fill="hsl(273, 75%, 70%)" opacity="0.84"></circle><circle r="15.5" cx="375" cy="437" fill="hsl(265, 75%, 70%)" opacity="0.46"></circle><circle r="7" cx="672" cy="567" fill="hsl(74, 75%, 70%)" opacity="0.75"></circle><circle r="6.5" cx="623" cy="463" fill="hsl(64, 75%, 70%)" opacity="0.46"></circle><circle r="7" cx="99" cy="689" fill="hsl(187, 75%, 70%)" opacity="0.44"></circle><circle r="12.5" cx="436" cy="177" fill="hsl(217, 75%, 70%)" opacity="0.87"></circle><circle r="10.5" cx="357" cy="649" fill="hsl(276, 75%, 70%)" opacity="0.59"></circle><circle r="11" cx="206" cy="513" fill="hsl(322, 75%, 70%)" opacity="0.48"></circle><circle r="10.5" cx="472" cy="50" fill="hsl(271, 75%, 70%)" opacity="0.16"></circle><circle r="10" cx="513" cy="127" fill="hsl(172, 75%, 70%)" opacity="0.38"></circle><circle r="13" cx="770" cy="81" fill="hsl(179, 75%, 70%)" opacity="0.13"></circle><circle r="14.5" cx="268" cy="301" fill="hsl(333, 75%, 70%)" opacity="0.43"></circle><circle r="5.5" cx="376" cy="791" fill="hsl(253, 75%, 70%)" opacity="0.64"></circle><circle r="7" cx="609" cy="590" fill="hsl(67, 75%, 70%)" opacity="0.72"></circle><circle r="13.5" cx="220" cy="722" fill="hsl(329, 75%, 70%)" opacity="0.57"></circle><circle r="7.5" cx="125" cy="525" fill="hsl(222, 75%, 70%)" opacity="0.63"></circle><circle r="16.5" cx="287" cy="258" fill="hsl(329, 75%, 70%)" opacity="0.73"></circle><circle r="5.5" cx="741" cy="660" fill="hsl(150, 75%, 70%)" opacity="0.19"></circle><circle r="16.5" cx="205" cy="564" fill="hsl(322, 75%, 70%)" opacity="0.38"></circle><circle r="11" cx="35" cy="202" fill="hsl(122, 75%, 70%)" opacity="0.41"></circle><circle r="12" cx="361" cy="182" fill="hsl(282, 75%, 70%)" opacity="0.77"></circle><circle r="11.5" cx="205" cy="291" fill="hsl(322, 75%, 70%)" opacity="0.83"></circle><circle r="11" cx="87" cy="55" fill="hsl(209, 75%, 70%)" opacity="0.29"></circle><circle r="9.5" cx="633" cy="412" fill="hsl(64, 75%, 70%)" opacity="0.27"></circle><circle r="10" cx="522" cy="338" fill="hsl(124, 75%, 70%)" opacity="0.21"></circle><circle r="8.5" cx="436" cy="757" fill="hsl(206, 75%, 70%)" opacity="0.78"></circle><circle r="6.5" cx="19" cy="13" fill="hsl(180, 75%, 70%)" opacity="0.61"></circle><circle r="15.5" cx="345" cy="392" fill="hsl(287, 75%, 70%)" opacity="0.13"></circle><circle r="8" cx="553" cy="147" fill="hsl(123, 75%, 70%)" opacity="0.67"></circle><circle r="5" cx="555" cy="220" fill="hsl(93, 75%, 70%)" opacity="0.92"></circle><circle r="7.5" cx="149" cy="722" fill="hsl(257, 75%, 70%)" opacity="0.30"></circle><circle r="8.5" cx="335" cy="351" fill="hsl(298, 75%, 70%)" opacity="0.94"></circle><circle r="6" cx="616" cy="271" fill="hsl(64, 75%, 70%)" opacity="0.99"></circle><circle r="14" cx="331" cy="470" fill="hsl(298, 75%, 70%)" opacity="0.94"></circle><circle r="16.5" cx="353" cy="575" fill="hsl(276, 75%, 70%)" opacity="0.63"></circle><circle r="10" cx="177" cy="155" fill="hsl(279, 75%, 70%)" opacity="0.93"></circle><circle r="8" cx="585" cy="716" fill="hsl(77, 75%, 70%)" opacity="0.23"></circle><circle r="13" cx="437" cy="472" fill="hsl(206, 75%, 70%)" opacity="0.22"></circle><circle r="7" cx="141" cy="698" fill="hsl(257, 75%, 70%)" opacity="0.79"></circle><circle r="9" cx="408" cy="739" fill="hsl(230, 75%, 70%)" opacity="0.49"></circle><circle r="5" cx="667" cy="697" fill="hsl(74, 75%, 70%)" opacity="0.38"></circle><circle r="11.5" cx="211" cy="197" fill="hsl(322, 75%, 70%)" opacity="0.29"></circle><circle r="8" cx="725" cy="345" fill="hsl(134, 75%, 70%)" opacity="0.52"></circle><circle r="7.5" cx="786" cy="701" fill="hsl(203, 75%, 70%)" opacity="0.72"></circle><circle r="12.5" cx="237" cy="276" fill="hsl(333, 75%, 70%)" opacity="0.31"></circle><circle r="12" cx="55" cy="463" fill="hsl(143, 75%, 70%)" opacity="0.67"></circle><circle r="10" cx="486" cy="83" fill="hsl(248, 75%, 70%)" opacity="0.63"></circle><circle r="13.5" cx="774" cy="141" fill="hsl(185, 75%, 70%)" opacity="0.20"></circle><circle r="12" cx="187" cy="255" fill="hsl(301, 75%, 70%)" opacity="0.63"></circle><circle r="9" cx="729" cy="161" fill="hsl(137, 75%, 70%)" opacity="0.19"></circle><circle r="7" cx="401" cy="779" fill="hsl(230, 75%, 70%)" opacity="0.93"></circle><circle r="10" cx="725" cy="106" fill="hsl(133, 75%, 70%)" opacity="0.84"></circle><circle r="7.5" cx="606" cy="777" fill="hsl(67, 75%, 70%)" opacity="0.26"></circle><circle r="8" cx="593" cy="516" fill="hsl(71, 75%, 70%)" opacity="0.36"></circle><circle r="6" cx="675" cy="516" fill="hsl(74, 75%, 70%)" opacity="0.80"></circle><circle r="11.5" cx="76" cy="352" fill="hsl(171, 75%, 70%)" opacity="0.40"></circle><circle r="9.5" cx="112" cy="584" fill="hsl(204, 75%, 70%)" opacity="0.65"></circle><circle r="6" cx="603" cy="236" fill="hsl(67, 75%, 70%)" opacity="0.69"></circle><circle r="18" cx="260" cy="452" fill="hsl(335, 75%, 70%)" opacity="0.99"></circle><circle r="8" cx="649" cy="603" fill="hsl(65, 75%, 70%)" opacity="0.44"></circle><circle r="10" cx="540" cy="614" fill="hsl(103, 75%, 70%)" opacity="0.73"></circle><circle r="9" cx="23" cy="632" fill="hsl(115, 75%, 70%)" opacity="0.47"></circle><circle r="20" cx="304" cy="621" fill="hsl(316, 75%, 70%)" opacity="0.72"></circle><circle r="8.5" cx="485" cy="315" fill="hsl(160, 75%, 70%)" opacity="0.39"></circle><circle r="14" cx="645" cy="33" fill="hsl(127, 75%, 70%)" opacity="0.48"></circle><circle r="10.5" cx="338" cy="676" fill="hsl(287, 75%, 70%)" opacity="0.57"></circle><circle r="7" cx="186" cy="179" fill="hsl(294, 75%, 70%)" opacity="0.17"></circle><circle r="5" cx="698" cy="724" fill="hsl(92, 75%, 70%)" opacity="0.48"></circle><circle r="10" cx="546" cy="521" fill="hsl(103, 75%, 70%)" opacity="0.12"></circle><circle r="7" cx="738" cy="732" fill="hsl(150, 75%, 70%)" opacity="0.52"></circle><circle r="9.5" cx="66" cy="651" fill="hsl(156, 75%, 70%)" opacity="0.94"></circle><circle r="8.5" cx="744" cy="566" fill="hsl(150, 75%, 70%)" opacity="0.94"></circle><circle r="11" cx="297" cy="757" fill="hsl(323, 75%, 70%)" opacity="0.12"></circle><circle r="11.5" cx="454" cy="95" fill="hsl(266, 75%, 70%)" opacity="0.41"></circle><circle r="6.5" cx="626" cy="346" fill="hsl(64, 75%, 70%)" opacity="0.25"></circle><circle r="11.5" cx="80" cy="169" fill="hsl(156, 75%, 70%)" opacity="0.20"></circle><circle r="9" cx="50" cy="85" fill="hsl(136, 75%, 70%)" opacity="0.45"></circle><circle r="13" cx="410" cy="550" fill="hsl(230, 75%, 70%)" opacity="0.53"></circle><circle r="11.5" cx="37" cy="299" fill="hsl(122, 75%, 70%)" opacity="0.86"></circle><circle r="9" cx="358" cy="743" fill="hsl(276, 75%, 70%)" opacity="0.86"></circle><circle r="10.5" cx="279" cy="785" fill="hsl(329, 75%, 70%)" opacity="0.98"></circle><circle r="6" cx="598" cy="627" fill="hsl(71, 75%, 70%)" opacity="0.86"></circle><circle r="7" cx="534" cy="95" fill="hsl(184, 75%, 70%)" opacity="0.58"></circle><circle r="7.5" cx="754" cy="365" fill="hsl(167, 75%, 70%)" opacity="0.41"></circle><circle r="6.5" cx="643" cy="678" fill="hsl(65, 75%, 70%)" opacity="0.18"></circle><circle r="9" cx="433" cy="685" fill="hsl(206, 75%, 70%)" opacity="0.24"></circle><circle r="7.5" cx="106" cy="427" fill="hsl(204, 75%, 70%)" opacity="0.20"></circle><circle r="8" cx="571" cy="17" fill="hsl(164, 75%, 70%)" opacity="0.39"></circle><circle r="8.5" cx="158" cy="787" fill="hsl(273, 75%, 70%)" opacity="0.26"></circle><circle r="19.5" cx="265" cy="584" fill="hsl(333, 75%, 70%)" opacity="0.55"></circle><circle r="9.5" cx="607" cy="87" fill="hsl(121, 75%, 70%)" opacity="0.35"></circle><circle r="10" cx="424" cy="651" fill="hsl(218, 75%, 70%)" opacity="0.31"></circle><circle r="16" cx="318" cy="532" fill="hsl(307, 75%, 70%)" opacity="0.84"></circle><circle r="10" cx="321" cy="785" fill="hsl(307, 75%, 70%)" opacity="0.45"></circle><circle r="7" cx="27" cy="56" fill="hsl(147, 75%, 70%)" opacity="0.73"></circle><circle r="7.5" cx="69" cy="419" fill="hsl(156, 75%, 70%)" opacity="0.78"></circle><circle r="10" cx="177" cy="502" fill="hsl(301, 75%, 70%)" opacity="0.33"></circle><circle r="11.5" cx="302" cy="163" fill="hsl(315, 75%, 70%)" opacity="0.34"></circle><circle r="13" cx="259" cy="105" fill="hsl(298, 75%, 70%)" opacity="0.59"></circle><circle r="13" cx="106" cy="635" fill="hsl(204, 75%, 70%)" opacity="0.30"></circle><circle r="14" cx="382" cy="304" fill="hsl(253, 75%, 70%)" opacity="0.64"></circle><circle r="6.5" cx="479" cy="786" fill="hsl(160, 75%, 70%)" opacity="0.60"></circle><circle r="14.5" cx="273" cy="406" fill="hsl(333, 75%, 70%)" opacity="0.84"></circle><circle r="10" cx="144" cy="247" fill="hsl(257, 75%, 70%)" opacity="0.57"></circle><circle r="8.5" cx="782" cy="356" fill="hsl(203, 75%, 70%)" opacity="0.66"></circle><circle r="10" cx="415" cy="74" fill="hsl(308, 75%, 70%)" opacity="0.82"></circle><circle r="14" cx="192" cy="680" fill="hsl(313, 75%, 70%)" opacity="0.23"></circle><circle r="10" cx="729" cy="302" fill="hsl(134, 75%, 70%)" opacity="0.30"></circle><circle r="10" cx="295" cy="714" fill="hsl(323, 75%, 70%)" opacity="0.68"></circle><circle r="8.5" cx="784" cy="446" fill="hsl(203, 75%, 70%)" opacity="0.30"></circle><circle r="8.5" cx="634" cy="121" fill="hsl(92, 75%, 70%)" opacity="0.85"></circle><circle r="9.5" cx="276" cy="673" fill="hsl(329, 75%, 70%)" opacity="0.17"></circle><circle r="7.5" cx="516" cy="266" fill="hsl(124, 75%, 70%)" opacity="0.27"></circle><circle r="7" cx="587" cy="461" fill="hsl(77, 75%, 70%)" opacity="0.77"></circle><circle r="8" cx="771" cy="736" fill="hsl(185, 75%, 70%)" opacity="0.96"></circle><circle r="12.5" cx="134" cy="150" fill="hsl(217, 75%, 70%)" opacity="0.57"></circle><circle r="6" cx="778" cy="327" fill="hsl(203, 75%, 70%)" opacity="0.55"></circle><circle r="13.5" cx="439" cy="322" fill="hsl(195, 75%, 70%)" opacity="0.78"></circle><circle r="14.5" cx="104" cy="217" fill="hsl(204, 75%, 70%)" opacity="0.59"></circle><circle r="12.5" cx="252" cy="181" fill="hsl(330, 75%, 70%)" opacity="0.58"></circle><circle r="7.5" cx="554" cy="46" fill="hsl(176, 75%, 70%)" opacity="0.80"></circle><circle r="10" cx="584" cy="379" fill="hsl(77, 75%, 70%)" opacity="0.35"></circle><circle r="10.5" cx="326" cy="748" fill="hsl(298, 75%, 70%)" opacity="0.25"></circle><circle r="13.5" cx="229" cy="20" fill="hsl(309, 75%, 70%)" opacity="0.20"></circle><circle r="7.5" cx="653" cy="257" fill="hsl(68, 75%, 70%)" opacity="0.24"></circle><circle r="6" cx="519" cy="76" fill="hsl(206, 75%, 70%)" opacity="0.68"></circle><circle r="11" cx="103" cy="17" fill="hsl(275, 75%, 70%)" opacity="0.62"></circle><circle r="10.5" cx="510" cy="394" fill="hsl(136, 75%, 70%)" opacity="0.44"></circle><circle r="8.5" cx="103" cy="546" fill="hsl(204, 75%, 70%)" opacity="0.60"></circle><circle r="11" cx="385" cy="151" fill="hsl(277, 75%, 70%)" opacity="0.36"></circle><circle r="16.5" cx="276" cy="211" fill="hsl(329, 75%, 70%)" opacity="0.60"></circle><circle r="14" cx="380" cy="59" fill="hsl(329, 75%, 70%)" opacity="0.73"></circle><circle r="11.5" cx="282" cy="137" fill="hsl(310, 75%, 70%)" opacity="0.34"></circle><circle r="7.5" cx="430" cy="786" fill="hsl(206, 75%, 70%)" opacity="0.86"></circle><circle r="11.5" cx="184" cy="364" fill="hsl(301, 75%, 70%)" opacity="0.99"></circle><circle r="15" cx="197" cy="767" fill="hsl(313, 75%, 70%)" opacity="0.36"></circle><circle r="9" cx="80" cy="523" fill="hsl(171, 75%, 70%)" opacity="0.67"></circle><circle r="9.5" cx="479" cy="672" fill="hsl(160, 75%, 70%)" opacity="0.27"></circle><circle r="8.5" cx="351" cy="508" fill="hsl(276, 75%, 70%)" opacity="0.82"></circle><circle r="8" cx="399" cy="127" fill="hsl(285, 75%, 70%)" opacity="0.69"></circle><circle r="8.5" cx="381" cy="757" fill="hsl(253, 75%, 70%)" opacity="0.93"></circle><circle r="8.5" cx="705" cy="541" fill="hsl(104, 75%, 70%)" opacity="0.50"></circle><circle r="9.5" cx="188" cy="222" fill="hsl(313, 75%, 70%)" opacity="0.97"></circle><circle r="8.5" cx="19" cy="685" fill="hsl(115, 75%, 70%)" opacity="0.71"></circle><circle r="10" cx="326" cy="714" fill="hsl(298, 75%, 70%)" opacity="0.65"></circle><circle r="9" cx="734" cy="251" fill="hsl(134, 75%, 70%)" opacity="0.70"></circle><circle r="11.5" cx="417" cy="224" fill="hsl(218, 75%, 70%)" opacity="0.18"></circle><circle r="10.5" cx="368" cy="620" fill="hsl(265, 75%, 70%)" opacity="0.66"></circle><circle r="12.5" cx="388" cy="700" fill="hsl(241, 75%, 70%)" opacity="0.51"></circle><circle r="4.5" cx="661" cy="486" fill="hsl(68, 75%, 70%)" opacity="0.58"></circle><circle r="7" cx="713" cy="461" fill="hsl(118, 75%, 70%)" opacity="0.27"></circle><circle r="10" cx="88" cy="292" fill="hsl(187, 75%, 70%)" opacity="0.20"></circle><circle r="9.5" cx="121" cy="454" fill="hsl(222, 75%, 70%)" opacity="0.16"></circle><circle r="13.5" cx="414" cy="21" fill="hsl(320, 75%, 70%)" opacity="0.37"></circle><circle r="14" cx="228" cy="65" fill="hsl(287, 75%, 70%)" opacity="0.64"></circle><circle r="5.5" cx="623" cy="740" fill="hsl(64, 75%, 70%)" opacity="0.28"></circle><circle r="11.5" cx="271" cy="737" fill="hsl(333, 75%, 70%)" opacity="0.30"></circle><circle r="9" cx="569" cy="325" fill="hsl(85, 75%, 70%)" opacity="0.47"></circle><circle r="8" cx="661" cy="367" fill="hsl(68, 75%, 70%)" opacity="0.45"></circle><circle r="17" cx="157" cy="28" fill="hsl(282, 75%, 70%)" opacity="0.66"></circle><circle r="10.5" cx="229" cy="396" fill="hsl(333, 75%, 70%)" opacity="0.36"></circle><circle r="7" cx="467" cy="711" fill="hsl(171, 75%, 70%)" opacity="0.96"></circle><circle r="14" cx="170" cy="321" fill="hsl(288, 75%, 70%)" opacity="0.19"></circle><circle r="16" cx="396" cy="361" fill="hsl(241, 75%, 70%)" opacity="1.00"></circle><circle r="8" cx="685" cy="636" fill="hsl(82, 75%, 70%)" opacity="0.91"></circle><circle r="13.5" cx="471" cy="222" fill="hsl(171, 75%, 70%)" opacity="0.76"></circle><circle r="6" cx="647" cy="208" fill="hsl(65, 75%, 70%)" opacity="0.21"></circle><circle r="9.5" cx="121" cy="773" fill="hsl(222, 75%, 70%)" opacity="0.50"></circle><circle r="10" cx="676" cy="85" fill="hsl(117, 75%, 70%)" opacity="0.18"></circle><circle r="16.5" cx="424" cy="411" fill="hsl(218, 75%, 70%)" opacity="0.64"></circle><circle r="7" cx="785" cy="303" fill="hsl(203, 75%, 70%)" opacity="0.87"></circle><circle r="13.5" cx="337" cy="140" fill="hsl(307, 75%, 70%)" opacity="0.87"></circle><circle r="5" cx="578" cy="205" fill="hsl(77, 75%, 70%)" opacity="0.44"></circle><circle r="15" cx="190" cy="417" fill="hsl(313, 75%, 70%)" opacity="0.50"></circle><circle r="8" cx="223" cy="138" fill="hsl(298, 75%, 70%)" opacity="0.34"></circle><circle r="8.5" cx="770" cy="651" fill="hsl(185, 75%, 70%)" opacity="0.63"></circle><circle r="6" cx="662" cy="454" fill="hsl(68, 75%, 70%)" opacity="0.64"></circle><circle r="8.5" cx="56" cy="129" fill="hsl(120, 75%, 70%)" opacity="0.76"></circle><circle r="10.5" cx="746" cy="422" fill="hsl(150, 75%, 70%)" opacity="0.31"></circle><circle r="13.5" cx="288" cy="335" fill="hsl(323, 75%, 70%)" opacity="0.79"></circle><circle r="8" cx="344" cy="326" fill="hsl(287, 75%, 70%)" opacity="0.84"></circle><circle r="10" cx="140" cy="605" fill="hsl(257, 75%, 70%)" opacity="0.17"></circle><circle r="9" cx="224" cy="163" fill="hsl(314, 75%, 70%)" opacity="0.71"></circle><circle r="8.5" cx="131" cy="404" fill="hsl(239, 75%, 70%)" opacity="0.96"></circle><circle r="11.5" cx="446" cy="523" fill="hsl(195, 75%, 70%)" opacity="0.75"></circle><circle r="9.5" cx="455" cy="143" fill="hsl(227, 75%, 70%)" opacity="0.24"></circle><circle r="7.5" cx="748" cy="698" fill="hsl(150, 75%, 70%)" opacity="0.47"></circle><circle r="15" cx="228" cy="334" fill="hsl(333, 75%, 70%)" opacity="0.63"></circle><circle r="8" cx="567" cy="84" fill="hsl(151, 75%, 70%)" opacity="0.91"></circle><circle r="7.5" cx="575" cy="273" fill="hsl(85, 75%, 70%)" opacity="0.51"></circle><circle r="5.5" cx="698" cy="760" fill="hsl(92, 75%, 70%)" opacity="0.81"></circle><circle r="4.5" cx="670" cy="732" fill="hsl(74, 75%, 70%)" opacity="0.14"></circle><circle r="9" cx="783" cy="400" fill="hsl(203, 75%, 70%)" opacity="0.19"></circle><circle r="7" cx="668" cy="780" fill="hsl(74, 75%, 70%)" opacity="0.81"></circle><circle r="10" cx="384" cy="212" fill="hsl(253, 75%, 70%)" opacity="0.41"></circle><circle r="11.5" cx="156" cy="281" fill="hsl(273, 75%, 70%)" opacity="0.85"></circle><circle r="11.5" cx="779" cy="485" fill="hsl(203, 75%, 70%)" opacity="0.86"></circle><circle r="13" cx="301" cy="99" fill="hsl(312, 75%, 70%)" opacity="0.27"></circle><circle r="5.5" cx="634" cy="504" fill="hsl(64, 75%, 70%)" opacity="0.80"></circle><circle r="14.5" cx="161" cy="453" fill="hsl(273, 75%, 70%)" opacity="0.77"></circle><circle r="10.5" cx="227" cy="429" fill="hsl(333, 75%, 70%)" opacity="0.63"></circle><circle r="6.5" cx="176" cy="200" fill="hsl(301, 75%, 70%)" opacity="0.29"></circle><circle r="17" cx="280" cy="507" fill="hsl(329, 75%, 70%)" opacity="0.55"></circle><circle r="8.5" cx="121" cy="730" fill="hsl(222, 75%, 70%)" opacity="0.66"></circle><circle r="10.5" cx="100" cy="489" fill="hsl(204, 75%, 70%)" opacity="0.50"></circle><circle r="13" cx="516" cy="182" fill="hsl(133, 75%, 70%)" opacity="0.95"></circle><circle r="6.5" cx="76" cy="389" fill="hsl(171, 75%, 70%)" opacity="0.12"></circle><circle r="16.5" cx="274" cy="56" fill="hsl(306, 75%, 70%)" opacity="0.66"></circle><circle r="8" cx="682" cy="325" fill="hsl(82, 75%, 70%)" opacity="0.88"></circle><circle r="6" cx="515" cy="712" fill="hsl(124, 75%, 70%)" opacity="0.81"></circle><circle r="13" cx="413" cy="269" fill="hsl(218, 75%, 70%)" opacity="0.67"></circle><circle r="5.5" cx="545" cy="727" fill="hsl(103, 75%, 70%)" opacity="0.21"></circle><circle r="16" cx="241" cy="773" fill="hsl(335, 75%, 70%)" opacity="0.31"></circle><circle r="8.5" cx="512" cy="754" fill="hsl(136, 75%, 70%)" opacity="0.65"></circle><circle r="10" cx="73" cy="580" fill="hsl(156, 75%, 70%)" opacity="0.83"></circle><circle r="10" cx="782" cy="774" fill="hsl(203, 75%, 70%)" opacity="0.73"></circle><circle r="11.5" cx="321" cy="221" fill="hsl(307, 75%, 70%)" opacity="0.94"></circle><circle r="9.5" cx="506" cy="477" fill="hsl(136, 75%, 70%)" opacity="0.22"></circle><circle r="10.5" cx="102" cy="113" fill="hsl(187, 75%, 70%)" opacity="0.22"></circle><circle r="7.5" cx="45" cy="723" fill="hsl(131, 75%, 70%)" opacity="0.85"></circle><circle r="6.5" cx="624" cy="307" fill="hsl(64, 75%, 70%)" opacity="0.57"></circle><circle r="10.5" cx="144" cy="500" fill="hsl(257, 75%, 70%)" opacity="0.81"></circle><circle r="8" cx="631" cy="544" fill="hsl(64, 75%, 70%)" opacity="0.73"></circle><circle r="12" cx="477" cy="443" fill="hsl(160, 75%, 70%)" opacity="0.48"></circle><circle r="8.5" cx="511" cy="646" fill="hsl(136, 75%, 70%)" opacity="0.92"></circle><circle r="6" cx="538" cy="294" fill="hsl(103, 75%, 70%)" opacity="0.81"></circle><circle r="14.5" cx="310" cy="433" fill="hsl(316, 75%, 70%)" opacity="0.22"></circle><circle r="6" cx="685" cy="125" fill="hsl(102, 75%, 70%)" opacity="0.11"></circle><circle r="8.5" cx="693" cy="273" fill="hsl(92, 75%, 70%)" opacity="0.27"></circle><circle r="8" cx="563" cy="670" fill="hsl(85, 75%, 70%)" opacity="0.51"></circle><circle r="11" cx="384" cy="95" fill="hsl(312, 75%, 70%)" opacity="0.97"></circle><circle r="12.5" cx="178" cy="721" fill="hsl(301, 75%, 70%)" opacity="0.23"></circle><circle r="10" cx="509" cy="42" fill="hsl(232, 75%, 70%)" opacity="0.56"></circle><circle r="17.5" cx="243" cy="655" fill="hsl(335, 75%, 70%)" opacity="0.51"></circle></svg>